<svg width="24" height="24" viewBox="0 0 24 24" fill="none" xmlns="http://www.w3.org/2000/svg">
<g id="Frame 1">
<g id="Vector 5">
<path d="M12.4 20.2059L16.3118 7.91176H8.48822L12.4 20.2059Z" fill="#EEF0FF"/>
<path d="M18.547 4L16.3118 7.91176H21.5L18.547 4Z" fill="#EEF0FF"/>
<path d="M8.48822 7.91176L6.25293 4L3 7.91176H8.48822Z" fill="#EEF0FF"/>
<path d="M12.4 4L8.48822 7.91176H16.3118L12.4 4Z" fill="#EEF0FF"/>
<path d="M16.3118 7.91176L18.547 4H12.4L16.3118 7.91176Z" fill="#EEF0FF"/>
<path d="M6.25293 4L8.48822 7.91176L12.4 4H6.25293Z" fill="#EEF0FF"/>
<path d="M18.547 4L16.3118 7.91176M18.547 4L21.5 7.91176M18.547 4H12.4M16.3118 7.91176L12.4 20.2059M16.3118 7.91176L12.4 4M16.3118 7.91176H8.48822M16.3118 7.91176H21.5M12.4 20.2059L8.48822 7.91176M12.4 20.2059L3 7.91176M12.4 20.2059L21.5 7.91176M8.48822 7.91176L6.25293 4M8.48822 7.91176L12.4 4M8.48822 7.91176H3M6.25293 4L3 7.91176M6.25293 4H12.4" stroke="#2E22D3" stroke-width="1.3" stroke-linejoin="round"/>
</g>
</g>
</svg>
