<svg width="97" height="96" viewBox="0 0 97 96" fill="none" xmlns="http://www.w3.org/2000/svg">
<g id="Character">
<g clip-path="url(#clip0_1_4768)">
<circle id="Ellipse 38" cx="48.4282" cy="48" r="48" fill="#FDECD5"/>
<mask id="mask0_1_4768" style="mask-type:alpha" maskUnits="userSpaceOnUse" x="0" y="0" width="97" height="96">
<circle id="Ellipse 39" cx="48.4282" cy="48" r="48" fill="#D9D9D9"/>
</mask>
<g mask="url(#mask0_1_4768)">
<g id="Girl 14">
<path id="Hair" d="M82.1298 55.3796C82.1139 55.2217 82.1027 55.0622 82.0931 54.9043C81.9161 51.8338 80.9607 49.7874 79.7436 48.4268C77.694 46.1315 77.0783 42.7229 78.324 39.8214C79.8649 36.2342 79.514 32.9786 79.514 32.9786C78.2267 23.3955 70.9549 20.77 67.3229 20.0522C67.248 20.0379 67.1777 20.0235 67.106 20.0108C65.8794 19.7843 64.7246 19.2164 63.7643 18.3519C62.1278 16.8797 60.4641 15.7041 58.8196 14.7742C49.5236 9.49934 40.8337 11.9525 40.8337 11.9525C38.757 12.4151 37.1013 13.4918 35.8061 14.7662C35.4504 15.1171 35.1218 15.4824 34.8188 15.8541C34.7965 15.8541 34.7741 15.8525 34.7502 15.8525C30.9859 15.8509 27.9329 19.0649 27.9297 23.0318C27.9297 23.303 27.9457 23.5693 27.9728 23.8325C21.9818 28.7724 23.7921 36.5563 23.7921 36.5563C24.7731 40.469 20.5542 45.6418 20.5542 45.6418C18.5891 47.9579 17.64 51.845 17.4645 52.6282C17.4422 52.7334 17.4167 52.8387 17.3864 52.9408C15.5776 59.715 18.1951 64.7538 19.0676 66.1798C19.2382 66.4606 19.3929 66.7509 19.5333 67.0523C20.5717 69.2966 22.5607 71.0511 24.8449 72.4101C24.8624 76.8938 28.6028 80.8895 33.6592 81.5865C38.3088 82.2277 42.5628 79.8718 44.0813 76.1234L55.5928 75.2621C56.6966 77.6579 59.027 79.3103 61.7242 79.3119C65.2429 79.3135 68.1396 76.5062 68.5048 72.9014L73.4559 70.5232C73.6362 70.437 73.8148 70.3429 73.9871 70.2392C82.7168 65.0266 82.2654 56.737 82.1267 55.3812L82.1298 55.3796Z" fill="#E15EC4"/>
<path id="Body" d="M94.2542 100.356C92.1775 83.306 73.4914 78.1412 60.8489 76.6052C56.094 74.3211 58.4467 63.3662 58.5249 63.0137C58.3431 63.1604 49.6771 63.1652 49.2911 63.1652C48.9035 63.1652 40.2376 63.162 40.0573 63.0137C40.1339 63.3662 42.4866 74.3211 37.7333 76.6052C25.0893 78.1396 6.40316 83.3044 4.32799 100.356L2.15869 118.876L49.2098 118.543H49.3773L96.4283 118.876L94.259 100.356H94.2542Z" fill="#FAE7DF"/>
<path id="Boob Line" d="M49.3 91.9193C49.0528 94.5272 48.9506 97.1415 48.9937 99.7606C49.0001 100.145 49.5982 100.147 49.5919 99.7606C49.5488 97.1415 49.6509 94.5257 49.8981 91.9193C49.9348 91.5365 49.3367 91.5381 49.3 91.9193Z" fill="#F4C1B0"/>
<path id="Outfit" d="M82.5446 103.951C82.5446 103.951 76.5312 96.3551 76.1292 80.3375C74.8197 79.8096 73.4846 79.3454 72.1448 78.9355C72.132 78.9323 72.1193 78.9275 72.1065 78.9243C71.8624 80.8511 69.4396 94.1587 49.1073 94.6341C28.7751 94.1603 26.3522 80.8511 26.1081 78.9243C26.0954 78.9275 26.0826 78.9323 26.0699 78.9355C24.73 79.3454 23.3949 79.8096 22.0854 80.3375C21.6834 96.3551 15.6701 103.951 15.6701 103.951C14.351 105.921 15.0576 107.908 15.0576 107.908L17.6288 118.889H80.5842L83.1555 107.908C83.1555 107.908 83.8621 105.921 82.543 103.951H82.5446Z" fill="#45413D"/>
<path id="Haed Shadow" d="M58.1977 64.481C58.11 65.1509 58.0223 65.9325 57.9712 66.7699C56.2374 68.3809 54.2101 69.7288 51.8478 70.6427C51.1252 70.9235 48.5891 71.1962 47.0482 70.5342C45.3447 69.8005 42.9681 68.4479 40.5261 66.0107C40.4463 65.0951 40.333 64.2752 40.231 63.6372C42.7751 66.2643 45.2761 67.6966 47.0482 68.4607C48.5891 69.1226 51.1236 68.8499 51.8478 68.5692C54.3153 67.6153 56.4145 66.1877 58.1977 64.481Z" fill="#F5D5C6"/>
<path id="Haed" d="M71.9361 38.1945C71.6729 37.5485 71.1545 37.0253 70.4925 36.8036C69.4972 36.4686 68.8114 36.9695 68.3823 37.5214C68.9565 15.9259 49.4824 16.4857 49.4824 16.4857C49.4824 16.4857 29.7579 16.3454 30.5634 37.7814C30.1615 37.1466 29.423 36.416 28.2713 36.8036C27.6094 37.0253 27.091 37.5485 26.8278 38.1945C26.0893 40.0017 25.035 44.4998 31.68 46.4362C31.7199 46.4474 31.7581 46.4314 31.782 46.4043C35.2306 61.5876 43.0783 66.8673 47.1249 68.6219C48.6546 69.2854 51.1732 69.0111 51.891 68.732C61.9925 64.7969 65.8844 52.8228 67.2769 46.3788C73.7066 44.412 72.665 39.9841 71.9345 38.1961L71.9361 38.1945Z" fill="#FAE7DF"/>
<g id="Hair_2">
<path id="Hair_3" d="M70.1732 19.0126C73.1145 22.5058 73.6807 26.8811 70.1732 29.8335C66.6672 32.786 61.0096 31.9869 58.0683 28.4937C55.127 25.0005 55.5848 19.7751 59.0923 16.8226C62.5982 13.8701 67.2319 15.5194 70.1732 19.0126Z" fill="#E15EC4"/>
<path id="Hair_4" d="M70.1802 31.5704C70.1754 31.521 70.1675 31.4715 70.1579 31.4221C67.1034 15.2338 54.311 14.3645 50.9853 14.4156C50.8832 13.7728 51.8291 14.4331 50.1223 14.2545L49.6183 14.1986C49.6183 14.1986 51.0794 13.7759 47.7298 14.095L46.1427 14.3087C46.1427 14.3087 42.7404 13.7377 40.3702 16.3663C36.282 18.2756 32.0376 22.016 30.074 29.3006L28.7485 36.5853C28.7884 36.6124 28.8315 36.6364 28.8714 36.6635C29.1999 36.9777 30.4058 38.1963 30.543 39.2969C30.543 39.2969 31.1092 37.5248 32.4172 37.0638C32.4746 37.0431 32.5272 37.0223 32.5799 37.0016C38.0685 35.3874 44.6306 26.5603 44.6306 26.5603C44.7039 26.6864 44.7805 26.8092 44.8554 26.9336C44.4439 27.2223 42.758 28.6196 43.8266 31.4699L45.1075 29.4059C45.1075 29.4059 44.7948 34.6505 49.4827 35.456L48.8463 32.9167C48.8463 32.9167 52.03 37.3876 57.6207 36.7416C61.3181 37.7066 64.8767 37.587 67.5516 37.1898C67.5883 37.2026 67.6265 37.2138 67.668 37.2233C69.0222 37.5232 69.2631 39.1374 69.2631 39.1374C69.4226 37.8614 71.0176 36.4258 71.0176 36.4258C71.0575 34.1098 70.2137 31.9245 70.1818 31.5704H70.1802Z" fill="#E15EC4"/>
<path id="Hair_5" d="M29.4847 28.1074C29.3954 28.1074 29.3093 28.0628 29.2614 27.9814C26.9821 24.1788 26.4095 21.1434 27.5643 18.963C28.2055 17.7507 29.4018 16.8128 31.0256 16.2546C32.2378 15.8367 33.2507 15.7745 33.2937 15.7713C33.4389 15.7649 33.5601 15.8717 33.5697 16.0169C33.5777 16.1604 33.4692 16.2833 33.324 16.2929C33.2857 16.2945 29.4273 16.5528 28.0236 19.2102C26.9629 21.2184 27.5308 24.0799 29.7096 27.7151C29.783 27.8379 29.7431 27.999 29.6203 28.0724C29.5788 28.0979 29.5326 28.109 29.4863 28.109L29.4847 28.1074Z" fill="#E15EC4"/>
</g>
<g id="Ear Details">
<path id="Ear Detail" d="M29.5441 43.1233C29.5345 43.1233 29.525 43.1233 29.5154 43.1201C29.4293 43.1041 29.3718 43.0212 29.3862 42.935C29.6909 41.2602 28.3032 38.9219 28.2904 38.898C28.2457 38.823 28.2696 38.7241 28.3446 38.6794C28.4196 38.6332 28.5185 38.6587 28.5632 38.7337C28.6238 38.8341 30.0258 41.198 29.7004 42.9909C29.6861 43.0674 29.6191 43.1217 29.5441 43.1217V43.1233Z" fill="#F4C1B0"/>
<path id="Ear Detail_2" d="M28.1885 43.0436C28.1119 43.0436 28.0449 42.9877 28.0306 42.9096C28.0162 42.8234 28.0753 42.7405 28.1614 42.7261C28.9972 42.5874 29.2189 41.3735 29.2205 41.3624C29.2349 41.2762 29.3178 41.2188 29.4056 41.2332C29.4917 41.2491 29.5507 41.3304 29.5347 41.4182C29.5252 41.4772 29.27 42.8665 28.214 43.042C28.2045 43.042 28.1965 43.0436 28.1869 43.0436H28.1885Z" fill="#F4C1B0"/>
<path id="Ear Detail_3" d="M69.3861 43.1231C69.3112 43.1231 69.2426 43.0689 69.2298 42.9923C68.9044 41.1995 70.3065 38.834 70.3671 38.7351C70.4118 38.6602 70.5107 38.6346 70.5856 38.6809C70.6606 38.7255 70.6861 38.8245 70.6399 38.8994C70.6255 38.9233 69.2394 41.2617 69.5441 42.9365C69.56 43.0226 69.5026 43.1056 69.4148 43.1215C69.4053 43.1231 69.3957 43.1247 69.3861 43.1247V43.1231Z" fill="#F4C1B0"/>
<path id="Ear Detail_4" d="M70.7439 43.0436C70.7359 43.0436 70.7263 43.0436 70.7168 43.042C69.6608 42.8665 69.4056 41.4772 69.396 41.4182C69.3801 41.332 69.4391 41.2491 69.5252 41.2332C69.613 41.2188 69.6943 41.2762 69.7103 41.3624C69.7119 41.3751 69.9367 42.5874 70.7694 42.7261C70.8555 42.7405 70.9145 42.8234 70.9002 42.9096C70.8874 42.9877 70.8188 43.0436 70.7423 43.0436H70.7439Z" fill="#F4C1B0"/>
</g>
<g id="Eyes">
<path id="Right Eye" d="M58.4593 44.3833C59.1561 44.3833 59.721 43.8184 59.721 43.1216C59.721 42.4248 59.1561 41.8599 58.4593 41.8599C57.7625 41.8599 57.1976 42.4248 57.1976 43.1216C57.1976 43.8184 57.7625 44.3833 58.4593 44.3833Z" fill="#45413D"/>
<path id="Left Eye" d="M40.3476 44.3833C41.0444 44.3833 41.6093 43.8184 41.6093 43.1216C41.6093 42.4248 41.0444 41.8599 40.3476 41.8599C39.6508 41.8599 39.0859 42.4248 39.0859 43.1216C39.0859 43.8184 39.6508 44.3833 40.3476 44.3833Z" fill="#45413D"/>
</g>
<g id="Eye Details">
<path id="Right Eye Detail" d="M58.9377 43.2796C59.113 43.2796 59.2551 43.1375 59.2551 42.9622C59.2551 42.7869 59.113 42.6448 58.9377 42.6448C58.7624 42.6448 58.6202 42.7869 58.6202 42.9622C58.6202 43.1375 58.7624 43.2796 58.9377 43.2796Z" fill="white"/>
<path id="Left Eye Detail" d="M40.7533 43.1199C40.9286 43.1199 41.0707 42.9778 41.0707 42.8025C41.0707 42.6272 40.9286 42.4851 40.7533 42.4851C40.578 42.4851 40.4359 42.6272 40.4359 42.8025C40.4359 42.9778 40.578 43.1199 40.7533 43.1199Z" fill="white"/>
</g>
<g id="Eyelids">
<path id="Right Eyelid" d="M62.4733 43.8683C62.2229 43.8683 62.0443 43.7805 62.0299 43.7726L61.9837 43.7407C60.5816 42.4869 59.2258 41.9319 57.953 42.0882C56.2765 42.2956 55.3179 43.6864 55.3083 43.7008C55.2413 43.7997 55.1074 43.8252 55.0085 43.7582C54.9096 43.6912 54.884 43.5572 54.951 43.4583C54.9941 43.3945 56.0309 41.8904 57.8987 41.6591C59.2928 41.4868 60.7539 42.0706 62.2436 43.3961C62.3314 43.4312 62.6488 43.5238 62.9646 43.2095C63.0492 43.125 63.1847 43.125 63.2693 43.2095C63.3538 43.2941 63.3538 43.4296 63.2693 43.5142C62.9901 43.7933 62.6998 43.8667 62.4701 43.8667L62.4733 43.8683Z" fill="#414140"/>
<path id="Left Eyelid" d="M36.3175 43.8678C36.0878 43.8678 35.7975 43.7945 35.5184 43.5153C35.4338 43.4308 35.4338 43.2952 35.5184 43.2107C35.6029 43.1262 35.7385 43.1262 35.823 43.2107C36.1373 43.5249 36.4595 43.4308 36.544 43.3973C38.0338 42.0734 39.4949 41.488 40.889 41.6603C42.7568 41.8915 43.7936 43.3957 43.8366 43.4595C43.9036 43.5584 43.8781 43.6924 43.7792 43.7594C43.6803 43.8264 43.5463 43.8008 43.4793 43.7019C43.4698 43.6876 42.5031 42.2935 40.8299 42.0878C39.5587 41.933 38.2045 42.4881 36.8056 43.7402L36.7593 43.7721C36.745 43.7785 36.5663 43.8678 36.3159 43.8678H36.3175Z" fill="#414140"/>
</g>
<g id="Nose">
<path id="Nose_2" d="M49.4956 52.8309C49.4765 52.8309 49.4573 52.8277 49.4382 52.8229C48.6486 52.6076 48.1653 52.2918 48.0026 51.8866C47.8606 51.5341 48.0154 51.2582 48.0345 51.2279L48.0664 51.1864C48.5545 50.6983 48.9979 49.25 49.1255 48.7348C49.1542 48.62 49.2707 48.5482 49.3871 48.5785C49.502 48.6072 49.5738 48.7252 49.5435 48.8401C49.5243 48.9198 49.0553 50.7717 48.3966 51.4656C48.3822 51.5038 48.3503 51.6075 48.4062 51.7351C48.4716 51.8867 48.706 52.1769 49.5514 52.4082C49.6662 52.4401 49.7349 52.5582 49.703 52.673C49.6774 52.7687 49.5897 52.8325 49.4956 52.8325V52.8309Z" fill="#F4C1B0"/>
<path id="Nose_3" d="M48.6178 52.0557C48.6178 52.0557 48.5381 52.1354 50.1331 52.2949C51.7282 52.4544 51.0902 54.0495 51.0902 54.0495C51.0902 54.0495 50.0534 55.4053 48.2988 52.2152C48.2988 52.2152 48.2988 52.0557 48.6178 52.0557Z" fill="#F4C1B0"/>
</g>
<g id="Freckles">
<path id="Freckle" d="M59.6231 49.3998C59.8288 49.3998 59.8288 49.0808 59.6231 49.0808C59.4173 49.0808 59.4173 49.3998 59.6231 49.3998Z" fill="#E15EC4"/>
<path id="Freckle_2" d="M58.8489 48.162C59.0547 48.162 59.0547 47.843 58.8489 47.843C58.6431 47.843 58.6431 48.162 58.8489 48.162Z" fill="#E15EC4"/>
<path id="Freckle_3" d="M56.2208 49.2562C56.3229 49.2562 56.3229 49.0967 56.2208 49.0967C56.1188 49.0967 56.1188 49.2562 56.2208 49.2562Z" fill="#E15EC4"/>
<path id="Freckle_4" d="M58.7932 53.3046C58.999 53.3046 58.999 52.9856 58.7932 52.9856C58.5875 52.9856 58.5875 53.3046 58.7932 53.3046Z" fill="#E15EC4"/>
<path id="Freckle_5" d="M56.7791 52.8019C56.9848 52.8019 56.9848 52.4829 56.7791 52.4829C56.5733 52.4829 56.5733 52.8019 56.7791 52.8019Z" fill="#E15EC4"/>
<path id="Freckle_6" d="M60.2453 51.068C60.451 51.068 60.451 50.749 60.2453 50.749C60.0395 50.749 60.0395 51.068 60.2453 51.068Z" fill="#E15EC4"/>
<path id="Freckle_7" d="M56.3893 49.3918C56.5951 49.3918 56.5951 49.0728 56.3893 49.0728C56.1835 49.0728 56.1835 49.3918 56.3893 49.3918Z" fill="#E15EC4"/>
<path id="Freckle_8" d="M57.7361 50.4462C57.9419 50.4462 57.9419 50.1272 57.7361 50.1272C57.5303 50.1272 57.5303 50.4462 57.7361 50.4462Z" fill="#E15EC4"/>
<path id="Freckle_9" d="M43.0299 52.5212C43.2357 52.5212 43.2357 52.2021 43.0299 52.2021C42.8242 52.2021 42.8242 52.5212 43.0299 52.5212Z" fill="#E15EC4"/>
<path id="Freckle_10" d="M42.0801 49.2243C42.2859 49.2243 42.2859 48.9053 42.0801 48.9053C41.8743 48.9053 41.8743 49.2243 42.0801 49.2243Z" fill="#E15EC4"/>
<path id="Freckle_11" d="M40.8809 50.3168C41.0866 50.3168 41.0866 49.9978 40.8809 49.9978C40.6751 49.9978 40.6751 50.3168 40.8809 50.3168Z" fill="#E15EC4"/>
<path id="Freckle_12" d="M39.1182 49.1127C39.324 49.1127 39.324 48.7937 39.1182 48.7937C38.9124 48.7937 38.9124 49.1127 39.1182 49.1127Z" fill="#E15EC4"/>
<path id="Freckle_13" d="M39.4522 51.2358C39.6579 51.2358 39.6579 50.9167 39.4522 50.9167C39.2464 50.9167 39.2464 51.2358 39.4522 51.2358Z" fill="#E15EC4"/>
<path id="Freckle_14" d="M38.6149 52.6092C38.717 52.6092 38.717 52.4497 38.6149 52.4497C38.5128 52.4497 38.5128 52.6092 38.6149 52.6092Z" fill="#E15EC4"/>
</g>
<path id="Mouth" d="M49.7637 60.3418C48.8737 60.3418 47.9709 59.8649 47.0761 58.9207C46.9851 58.8249 46.9899 58.6734 47.0856 58.5825C47.1813 58.4916 47.3329 58.4964 47.4238 58.5921C48.2931 59.5092 49.1464 59.9335 49.9599 59.8553C51.1179 59.7421 51.8261 58.6399 51.8325 58.6287C51.9027 58.5171 52.051 58.4836 52.1627 58.5538C52.2743 58.624 52.3078 58.7723 52.2376 58.8839C52.2042 58.9366 51.3955 60.1951 50.0062 60.3307C49.9248 60.3386 49.8451 60.3418 49.7637 60.3418Z" fill="#F4C1B0"/>
<g id="Eyeglasses">
<path id="Right Frame" d="M59.4362 52.6027C55.1854 52.6027 51.7273 49.1446 51.7273 44.8937C51.7273 40.6429 55.1854 37.1848 59.4362 37.1848C63.6871 37.1848 67.1451 40.6429 67.1451 44.8937C67.1451 49.1446 63.6871 52.6027 59.4362 52.6027ZM59.4362 37.8994C55.5794 37.8994 52.4419 41.0369 52.4419 44.8937C52.4419 48.7506 55.5794 51.8881 59.4362 51.8881C63.2931 51.8881 66.4305 48.7506 66.4305 44.8937C66.4305 41.0369 63.2931 37.8994 59.4362 37.8994Z" fill="#E15EC4"/>
<path id="Left Frame" d="M40.0528 52.6027C35.802 52.6027 32.3439 49.1446 32.3439 44.8937C32.3439 40.6429 35.802 37.1848 40.0528 37.1848C44.3036 37.1848 47.7617 40.6429 47.7617 44.8937C47.7617 49.1446 44.3036 52.6027 40.0528 52.6027ZM40.0528 37.8994C36.196 37.8994 33.0585 41.0369 33.0585 44.8937C33.0585 48.7506 36.196 51.8881 40.0528 51.8881C43.9097 51.8881 47.0471 48.7506 47.0471 44.8937C47.0471 41.0369 43.9097 37.8994 40.0528 37.8994Z" fill="#E15EC4"/>
<path id="Line" d="M47.6101 44.061L47.0104 43.6719C47.8302 42.4038 48.757 41.7466 49.765 41.7163C49.789 41.7163 49.8113 41.7163 49.8352 41.7163C51.3473 41.7163 52.4176 43.1518 52.4623 43.2125L51.8865 43.6352C51.8769 43.6224 50.9582 42.3942 49.7826 42.4309C49.0266 42.4548 48.2944 43.0019 47.6117 44.0594L47.6101 44.061Z" fill="#E15EC4"/>
</g>
<g id="Earrings">
<g id="Shapes">
<path id="Left Shape" d="M31.143 48.3167C31.143 47.656 30.6074 47.1204 29.9467 47.1204C29.286 47.1204 28.7504 47.656 28.7504 48.3167V54.2184C28.7504 54.8791 29.286 55.4147 29.9467 55.4147C30.6074 55.4147 31.143 54.8791 31.143 54.2184V48.3167Z" fill="#45413D"/>
<path id="Right Shape" d="M70.5403 48.3167C70.5403 47.656 70.0047 47.1204 69.344 47.1204C68.6833 47.1204 68.1477 47.656 68.1477 48.3167V54.2184C68.1477 54.8791 68.6833 55.4147 69.344 55.4147C70.0047 55.4147 70.5403 54.8791 70.5403 54.2184V48.3167Z" fill="#45413D"/>
</g>
<g id="Circle">
<path id="Left Circle" d="M29.8413 47.2353C30.5619 47.2353 31.146 46.6511 31.146 45.9305C31.146 45.2099 30.5619 44.6257 29.8413 44.6257C29.1207 44.6257 28.5365 45.2099 28.5365 45.9305C28.5365 46.6511 29.1207 47.2353 29.8413 47.2353Z" fill="#FFFFF9"/>
<path id="Right Circle" d="M69.2389 47.2353C69.9595 47.2353 70.5436 46.6511 70.5436 45.9305C70.5436 45.2099 69.9595 44.6257 69.2389 44.6257C68.5183 44.6257 67.9341 45.2099 67.9341 45.9305C67.9341 46.6511 68.5183 47.2353 69.2389 47.2353Z" fill="#FFFFF9"/>
</g>
</g>
</g>
</g>
</g>
<rect x="2.67847" y="2.25" width="91.5" height="91.5" rx="45.75" stroke="white" stroke-width="4.5"/>
</g>
<defs>
<clipPath id="clip0_1_4768">
<rect x="0.428467" width="96" height="96" rx="48" fill="white"/>
</clipPath>
</defs>
</svg>
