<svg width="97" height="96" viewBox="0 0 97 96" fill="none" xmlns="http://www.w3.org/2000/svg">
<g id="Character">
<g clip-path="url(#clip0_1_4826)">
<circle id="Ellipse 38" cx="48.8569" cy="48" r="48" fill="#FDD5F3"/>
<mask id="mask0_1_4826" style="mask-type:alpha" maskUnits="userSpaceOnUse" x="0" y="0" width="97" height="96">
<circle id="Ellipse 39" cx="48.8569" cy="48" r="48" fill="#D9D9D9"/>
</mask>
<g mask="url(#mask0_1_4826)">
<g id="Girl 10">
<path id="Body" d="M90.393 99.1201C88.4361 83.0546 70.8286 78.1879 58.9159 76.7406C54.4355 74.5883 56.6524 64.2658 56.7261 63.9336C56.5547 64.0719 48.389 64.0764 48.0253 64.0764C47.66 64.0764 39.4943 64.0734 39.3245 63.9336C39.3966 64.2658 41.6135 74.5883 37.1346 76.7406C25.2204 78.1864 7.61287 83.0531 5.65748 99.1201L3.6134 116.571L47.9486 116.257H48.1064L92.4416 116.571L90.3975 99.1201H90.393Z" fill="#C97F52"/>
<g id="Outfit">
<path id="Outfit Base" d="M92.4371 116.571L48.1019 116.256H47.944L3.61035 116.571L5.65443 99.12C7.11985 87.0841 17.3702 81.3321 27.4312 78.5967C28.6276 87.048 37.3329 93.6085 47.8929 93.6085C58.4529 93.6085 67.2049 87.0134 68.3637 78.5291C78.5029 81.2359 88.914 86.9834 90.393 99.12L92.4371 116.571Z" fill="#E15EC4"/>
<g id="Outfit Details">
<path id="Outfit Detail" d="M35.9883 111.849C34.1952 111.635 32.6592 110.504 31.2719 109.432C29.8696 108.348 28.5154 107.233 27.567 105.714C25.801 102.885 25.3321 99.4417 24.9639 96.1908C24.8451 95.1462 23.1903 95.1342 23.3106 96.1908C23.7284 99.8776 24.2574 103.793 26.3917 106.936C27.5234 108.602 29.082 109.83 30.6707 111.039C32.2594 112.247 33.9577 113.26 35.9898 113.502C37.0434 113.628 37.0343 111.974 35.9898 111.849H35.9883Z" fill="white"/>
<path id="Outfit Detail_2" d="M67.984 95.1191C68.6708 98.2844 71.1808 100.865 74.313 101.669C75.3441 101.934 75.7845 100.341 74.7519 100.074C72.1458 99.4041 70.1483 97.3045 69.5771 94.6787C69.3517 93.6402 67.757 94.0791 67.9825 95.1176L67.984 95.1191Z" fill="white"/>
<path id="Outfit Detail_3" d="M70.9208 84.6072C70.0461 86.4258 71.7144 87.5124 73.1708 88.1362C73.9929 88.4879 74.7985 88.7524 75.6898 88.8576C76.5195 88.9553 77.3626 88.9313 78.1878 89.056C78.9588 89.1733 79.6712 89.4408 80.095 90.1336C80.5204 90.8295 80.6211 91.6968 80.7669 92.4843C80.9097 93.2509 81.1051 94.0159 81.4838 94.7027C81.6627 95.0259 81.8926 95.343 82.1632 95.597C82.3089 95.7338 82.4818 95.8676 82.6487 95.9758C82.7539 96.0449 83.0169 96.3034 82.8651 96.066L82.7824 95.4287L82.8666 95.2994C83.1341 95.2288 83.4031 95.1582 83.6707 95.0875L83.5534 95.0574C82.5224 94.7959 82.082 96.3906 83.1146 96.6521C83.9021 96.852 84.6401 96.1321 84.335 95.331C84.2073 94.9943 83.9457 94.8365 83.6632 94.6531C83.301 94.4172 83.0605 94.1662 82.8621 93.7784C82.0955 92.2739 82.3631 90.4508 81.344 89.0305C80.322 87.6056 78.6266 87.3997 77.0034 87.305C76.1527 87.2554 75.3411 87.1953 74.531 86.9112C74.1643 86.782 72.03 86.1041 72.3487 85.4428C72.8071 84.4884 71.3822 83.6482 70.9208 84.6087V84.6072Z" fill="white"/>
<path id="Outfit Detail_4" d="M19.8798 87.2208C18.7135 88.3601 17.2946 89.1266 15.7015 89.4753C14.977 89.6331 14.221 89.7624 13.6454 90.2734C13.0231 90.8265 12.8262 91.6426 12.691 92.4302C12.4279 93.9678 12.434 95.6812 13.6183 96.855C14.6043 97.8335 16.1614 98.1716 17.4569 97.6711C18.4384 97.2909 18.0116 95.6917 17.0181 96.0765C16.1058 96.4297 15.0131 96.1967 14.493 95.3069C14.1413 94.7057 14.1534 93.9527 14.227 93.2839C14.2841 92.7594 14.3353 91.9087 14.7381 91.5254C15.1363 91.1467 15.8653 91.1376 16.3748 91.0159C16.9474 90.8776 17.5005 90.6807 18.0401 90.4448C19.1659 89.9518 20.1729 89.2469 21.0506 88.3902C21.8126 87.6447 20.6433 86.4769 19.8813 87.2208H19.8798Z" fill="white"/>
<path id="Outfit Detail_5" d="M34.0931 94.4999C32.0926 95.8947 31.1262 98.1912 31.4704 100.596C31.6207 101.645 33.2139 101.199 33.0651 100.157C32.8351 98.543 33.6001 96.8551 34.9288 95.9278C35.7945 95.3236 34.9694 93.8897 34.0946 94.4999H34.0931Z" fill="white"/>
</g>
<path id="Collar" d="M47.7095 94.3481C46.0382 94.3481 43.13 94.1512 39.9241 93.054C35.3866 91.4999 29.4031 87.7755 26.6692 78.8538L28.1061 78.4134C30.1501 85.0897 34.2909 89.5355 40.4095 91.6322C44.9922 93.2013 48.9931 92.797 49.0322 92.7925C56.1083 92.1462 61.5701 89.4378 64.8391 84.9589C67.292 81.5982 67.6678 78.4329 67.6708 78.4014L69.1647 78.5667C69.1482 78.7125 68.7394 82.1649 66.0535 85.8442C63.5901 89.2184 58.6633 93.4222 49.1795 94.288C49.1224 94.294 48.5858 94.3481 47.708 94.3481H47.7095Z" fill="white"/>
</g>
<path id="Head Shadow" d="M56.416 65.3163C56.3334 65.9476 56.2507 66.684 56.2026 67.4731C54.5688 68.9911 52.6585 70.2611 50.4326 71.1224C49.7518 71.3869 47.362 71.6439 45.9101 71.0202C44.3049 70.3288 42.0655 69.0543 39.7644 66.7577C39.6892 65.895 39.5825 65.1224 39.4863 64.5212C41.8836 66.9967 44.2403 68.3463 45.9101 69.0663C47.362 69.69 49.7503 69.433 50.4326 69.1685C52.7577 68.2697 54.7357 66.9245 56.416 65.3163Z" fill="#9B5730"/>
<path id="Head" d="M69.3616 40.5471C69.1136 39.9384 68.6252 39.4454 68.0014 39.2364C67.0635 38.9208 66.4173 39.3928 66.013 39.9128C66.554 19.5638 48.204 20.0914 48.204 20.0914C48.204 20.0914 29.6181 19.9591 30.3771 40.1578C29.9983 39.5596 29.3024 38.8712 28.2173 39.2364C27.5935 39.4454 27.1051 39.9384 26.8571 40.5471C26.1612 42.25 25.1677 46.4884 31.4292 48.313C31.4668 48.3235 31.5028 48.3085 31.5254 48.2829C34.7748 62.5899 42.1695 67.5648 45.9826 69.2181C47.424 69.8433 49.7972 69.5848 50.4736 69.3218C59.992 65.6139 63.6593 54.331 64.9714 48.2589C71.0299 46.4057 70.0485 42.2334 69.3601 40.5486L69.3616 40.5471Z" fill="#C97F52"/>
<g id="Ear Details">
<path id="Ear Detail" d="M29.4161 45.1914C29.4071 45.1914 29.3981 45.1914 29.3891 45.1884C29.3079 45.1734 29.2538 45.0952 29.2673 45.0141C29.5544 43.4359 28.2468 41.2325 28.2348 41.21C28.1927 41.1393 28.2152 41.0462 28.2859 41.0041C28.3565 40.962 28.4497 40.9845 28.4918 41.0552C28.5489 41.1499 29.87 43.3773 29.5634 45.0667C29.5499 45.1388 29.4868 45.1899 29.4161 45.1899V45.1914Z" fill="#6B4D38"/>
<path id="Ear Detail_2" d="M28.1391 45.1162C28.067 45.1162 28.0038 45.0636 27.9903 44.9899C27.9768 44.9088 28.0324 44.8306 28.1136 44.8171C28.9011 44.6863 29.11 43.5425 29.1115 43.532C29.1251 43.4509 29.2047 43.3967 29.2859 43.4103C29.3671 43.4253 29.4226 43.502 29.4076 43.5846C29.3986 43.6402 29.1582 44.9493 28.1632 45.1147C28.1542 45.1147 28.1466 45.1162 28.1376 45.1162H28.1391Z" fill="#6B4D38"/>
<path id="Ear Detail_3" d="M66.9599 45.1913C66.8892 45.1913 66.8246 45.1402 66.8126 45.0681C66.506 43.3787 67.8271 41.1498 67.8842 41.0566C67.9263 40.9859 68.0195 40.9619 68.0901 41.0055C68.1608 41.0476 68.1848 41.1407 68.1412 41.2114C68.1277 41.2339 66.8216 43.4373 67.1087 45.0155C67.1237 45.0966 67.0696 45.1748 66.9869 45.1898C66.9779 45.1913 66.9689 45.1928 66.9599 45.1928V45.1913Z" fill="#6B4D38"/>
<path id="Ear Detail_4" d="M68.2373 45.1162C68.2298 45.1162 68.2208 45.1162 68.2118 45.1147C67.2168 44.9493 66.9763 43.6402 66.9673 43.5846C66.9523 43.5035 67.0079 43.4253 67.0891 43.4103C67.1717 43.3967 67.2484 43.4509 67.2634 43.532C67.2649 43.544 67.4768 44.6863 68.2614 44.8171C68.3425 44.8306 68.3981 44.9088 68.3846 44.9899C68.3726 45.0636 68.308 45.1162 68.2358 45.1162H68.2373Z" fill="#6B4D38"/>
</g>
<g id="Hair">
<path id="Hair_2" d="M29.967 33.6951C29.8242 32.4687 28.4865 32.6385 27.6463 33.0112C27.1098 33.2502 26.6634 33.4125 26.0727 33.4396C25.8443 33.4501 25.6098 33.4396 25.3903 33.5193C24.7816 33.7462 24.7185 34.5758 24.1233 34.7652C23.94 34.8238 24.0181 35.1139 24.203 35.0553C24.463 34.9726 24.6028 34.8569 24.7696 34.6375C25.1815 34.0964 25.2461 33.7928 26.0727 33.7402C26.5086 33.7131 26.8723 33.6771 27.2871 33.5057C27.9244 33.2412 29.5146 32.3875 29.6664 33.6951C29.6889 33.8845 29.9895 33.8875 29.967 33.6951Z" fill="#42403B"/>
<path id="Hair_3" d="M32.3547 20.3185C29.6569 19.6286 28.2831 23.3876 28.3282 25.4647C28.3402 26.0193 28.4515 26.5769 28.6829 27.0819C28.9685 27.7056 29.4705 28.0739 29.8823 28.5999C30.452 29.3244 30.5091 30.9942 31.8182 30.7432C32.0075 30.7071 31.9279 30.417 31.7385 30.4531C30.8472 30.623 30.6879 29.5138 30.455 28.9682C30.3317 28.6796 30.1649 28.4391 29.9515 28.2091C29.1774 27.378 28.6649 26.643 28.6303 25.4632C28.5747 23.5905 29.8132 19.9773 32.2766 20.607C32.4645 20.6551 32.5441 20.365 32.3562 20.317L32.3547 20.3185Z" fill="#42403B"/>
<path id="Hair_4" d="M42.055 19.8329C41.7078 19.6976 41.4072 19.7773 41.1232 20.0207C40.8541 20.2507 40.7023 20.5723 40.3942 20.7692C40.1116 20.9496 39.7704 21.0247 39.4774 21.1901C38.4839 21.7507 38.0014 22.8885 37.1658 23.6279C37.02 23.7557 37.2334 23.9676 37.3777 23.8398C38.0585 23.2371 38.4794 22.412 39.1497 21.8018C39.545 21.4426 39.9914 21.3238 40.4453 21.0789C40.8872 20.8399 41.4102 19.905 41.9723 20.123C42.1527 20.1936 42.2309 19.902 42.052 19.8329H42.055Z" fill="#42403B"/>
<path id="Hair_5" d="M44.864 11.55C45.7628 10.9428 46.7909 10.5911 47.8836 10.5971C48.7222 10.6016 49.0379 10.7744 49.4632 11.5079C49.6045 11.7499 49.7277 11.9528 49.9216 12.1587C50.2583 12.5149 50.5979 12.7238 50.643 13.2454C50.6686 13.5475 50.616 13.8435 50.7377 14.1246C50.849 14.3801 51.0368 14.5154 51.139 14.7994C51.2337 15.067 51.2548 15.3631 51.2623 15.6456C51.2773 16.2498 51.2893 17.356 50.5138 17.5319C50.3244 17.574 50.4056 17.864 50.5935 17.822C51.6621 17.5815 51.6546 16.0559 51.5328 15.1932C51.4998 14.9527 51.4426 14.7183 51.3359 14.5004C51.103 14.0269 51.1075 14.0359 51.0098 13.3325C50.9512 12.9147 50.8249 12.6532 50.5303 12.3391C50.362 12.1587 50.1666 12.0024 50.0073 11.813C49.7743 11.535 49.7292 11.2043 49.5383 10.9127C49.3009 10.5505 48.8845 10.4017 48.4727 10.3371C47.1621 10.1312 45.7884 10.5625 44.7092 11.2915C44.5499 11.3997 44.7002 11.6597 44.861 11.5515L44.864 11.55Z" fill="#42403B"/>
<path id="Hair_6" d="M45.4372 11.1576C44.0454 10.7999 42.5049 11.5273 42.0991 12.9567C41.9773 13.388 41.9397 13.8059 41.7744 14.2297C41.6346 14.5904 41.4693 14.9482 41.4813 15.3434C41.5009 15.9717 41.9307 16.4136 42.5139 16.5819C42.7003 16.636 42.7799 16.3459 42.5936 16.2918C41.6512 16.0198 41.7459 15.1405 42.0209 14.4161C42.1968 13.9547 42.2539 13.5068 42.3891 13.0379C42.7559 11.7633 44.1206 11.1291 45.3575 11.4477C45.5454 11.4958 45.6251 11.2057 45.4372 11.1576Z" fill="#42403B"/>
<path id="Hair_7" d="M42.2443 25.3053C42.6592 26.3273 43.1341 27.3719 44.1095 27.9761C44.9708 28.5081 45.9041 28.2481 46.6015 27.5808C46.7413 27.447 46.5293 27.2351 46.3896 27.3689C44.61 29.0672 43.1476 26.7391 42.5344 25.2256C42.4623 25.0482 42.1722 25.1264 42.2443 25.3053Z" fill="#42403B"/>
<path id="Hair_8" d="M42.8019 28.2317C42.3014 29.9195 40.1146 29.8309 38.9182 30.7747C38.3065 31.2572 38.0675 32.0267 37.4648 32.5212C36.7103 33.1404 35.7364 33.3539 34.7895 33.145C34.6016 33.1029 34.5204 33.3929 34.7098 33.435C35.4568 33.6004 36.2113 33.5417 36.9117 33.2231C37.833 32.8038 38.1457 32.1079 38.7514 31.3669C39.9117 29.9481 42.4923 30.3284 43.0905 28.3128C43.1461 28.1265 42.856 28.0483 42.8004 28.2332L42.8019 28.2317Z" fill="#42403B"/>
<path id="Hair_9" d="M66.8318 31.1159C67.1038 30.3133 67.8418 29.9075 68.6504 29.8294C68.966 29.7993 69.5552 29.7602 69.8392 29.9015C70.212 30.0849 70.3382 30.4546 70.5922 30.7342C71.2235 31.4315 72.3117 30.8739 72.8693 31.7382C73.4945 32.7076 74.1363 34.2001 74.0356 35.3739C73.9875 35.936 73.7365 36.4666 73.0451 36.5312C72.6048 36.5718 72.1779 36.3448 71.8187 36.1269C71.3573 35.8458 70.953 35.5061 70.4525 35.2897C70.2766 35.2131 70.1233 35.4731 70.3007 35.5497C71.3167 35.9901 72.982 37.708 74.0176 36.3343C74.9614 35.0808 73.8552 32.924 73.2285 31.7667C72.9189 31.1956 72.5552 30.9671 71.9224 30.8739C71.2972 30.7838 71.0341 30.7687 70.6253 30.2051C70.4555 29.9721 70.3908 29.8053 70.1143 29.6745C68.8578 29.0824 66.9941 29.7121 66.5432 31.0378C66.4801 31.2211 66.7716 31.3008 66.8333 31.1174L66.8318 31.1159Z" fill="#42403B"/>
<path id="Hair_10" d="M70.2244 36.1133C69.9989 36.7746 69.5571 37.4404 69.0506 37.9199C68.3907 38.5451 67.4093 38.6624 66.5466 38.8052C66.3557 38.8367 66.4369 39.1268 66.6262 39.0952C67.5461 38.9434 68.5651 38.8082 69.264 38.1333C69.8081 37.6073 70.2695 36.9114 70.5145 36.1945C70.5776 36.0111 70.2875 35.933 70.2244 36.1148V36.1133Z" fill="#42403B"/>
<path id="Hair_11" d="M56.0524 20.7362C56.8505 20.0899 56.7062 18.904 57.4322 18.1781C57.9116 17.6986 58.5323 17.4311 59.2087 17.4055C59.655 17.389 60.0924 17.4987 60.5193 17.3079C61.0333 17.0779 61.3023 16.5473 61.8569 16.358C62.5724 16.113 63.39 16.3324 63.9386 16.8359C65.159 17.9586 64.9306 19.7562 64.3113 21.1194C64.2317 21.2938 64.4902 21.4471 64.5714 21.2712C65.135 20.0313 65.401 18.5869 64.7051 17.3379C64.134 16.3129 62.9361 15.6921 61.7788 16.0679C61.5488 16.143 61.3354 16.2633 61.146 16.4121C60.6876 16.7743 60.3509 17.0944 59.7152 17.126C59.096 17.156 58.5955 17.111 58.0183 17.3935C57.4908 17.652 57.0413 18.0699 56.7618 18.5869C56.4176 19.2242 56.4357 20.0433 55.8405 20.5242C55.6902 20.646 55.9036 20.8579 56.0524 20.7362Z" fill="#42403B"/>
<path id="Hair_12" d="M56.0899 20.3815C55.6405 19.5564 54.7808 19.1836 53.8595 19.2783C53.4191 19.3234 53.0313 19.4827 52.633 19.6586C51.8259 20.0133 51.0654 20.114 50.1892 20.147C49.9968 20.1545 49.9953 20.4551 50.1892 20.4476C51.0338 20.4161 51.8139 20.3424 52.5985 20.0088C53.7242 19.5308 55.119 19.2257 55.8314 20.5348C55.9246 20.7047 56.1831 20.5528 56.0914 20.383L56.0899 20.3815Z" fill="#42403B"/>
<path id="Hair_13" d="M31.3762 31.5233C31.4995 32.4191 31.8046 33.2683 31.9744 34.1536C32.1728 35.1906 31.991 36.1781 31.8332 37.2061C31.6979 38.0869 31.5611 38.9676 31.4259 39.8499C31.2801 40.7923 31.1914 41.7722 30.7495 42.6319L31.259 42.4245C30.6668 42.2201 30.9299 40.5217 30.9599 40.0828C31.0215 39.148 31.1778 38.2312 31.4018 37.3218C31.5401 36.7582 30.6714 36.5178 30.5316 37.0814C30.2009 38.4281 30.0175 39.8063 30.0221 41.1935C30.0251 42.0352 30.1092 42.9791 31.0186 43.2932C31.1974 43.3548 31.4409 43.2542 31.5281 43.0858C31.9699 42.2276 32.1067 41.3108 32.2525 40.3669C32.4163 39.2998 32.5817 38.2342 32.7455 37.1671C32.8853 36.2577 33.0536 35.3635 32.9319 34.4421C32.7891 33.3705 32.3953 32.3545 32.2465 31.2828C32.1668 30.7102 31.2981 30.9537 31.3762 31.5233Z" fill="#42403B"/>
<path id="Hair_14" d="M48.4637 28.7591C48.2413 29.3348 48.5434 29.9119 49.0469 30.2336C49.4316 30.4801 49.8991 30.5432 50.3364 30.6409C50.9932 30.7867 51.4787 31.1023 52.0574 31.4104C54.1255 32.5091 56.4236 31.43 58.5984 31.472C58.7923 31.4766 58.7923 31.176 58.5984 31.1714C56.7858 31.1354 54.9476 31.9199 53.147 31.5036C52.358 31.3217 51.7643 30.7867 51.0203 30.5131C50.2583 30.2336 48.2503 30.1464 48.7553 28.8388C48.8244 28.6584 48.5343 28.5803 48.4652 28.7591H48.4637Z" fill="#42403B"/>
<g id="Hair_15">
<path id="Vector" d="M60.904 31.5894C60.6665 32.1184 59.7963 32.7842 59.6114 33.3343C59.4265 33.8844 59.4641 34.5728 59.9135 34.9395C60.4997 35.419 61.4661 35.1229 62.0553 35.6008C62.5137 35.9736 62.5437 36.6439 62.649 37.2256C62.9345 38.7977 64.0828 40.1835 65.5753 40.7561C65.5753 39.9986 65.5768 39.223 65.8293 38.5076C65.9495 38.1664 66.1254 37.8433 66.1885 37.4871C66.3418 36.6139 65.7932 35.7827 65.2341 35.0958C64.421 34.0964 63.5237 33.1645 62.5573 32.3138" fill="#42403B"/>
</g>
<g id="Hair_16">
<path id="Vector_2" d="M44.6943 12.0866C44.9257 11.5966 45.4067 11.2614 45.9207 11.0901C46.4347 10.9187 46.9833 10.8902 47.5244 10.8751C47.9257 10.8631 48.336 10.8586 48.7133 10.9954C49.0905 11.1322 49.4287 11.4463 49.4798 11.8431C49.5264 12.1948 49.3445 12.5495 49.4001 12.8997C49.5399 13.7819 50.9347 13.9112 51.2233 14.7574C51.4156 15.3195 51.0218 15.8996 50.6506 16.3641C50.1035 17.0494 49.3941 17.8054 48.5224 17.7017C48.8726 17.4147 49.2213 17.1276 49.5715 16.8405C49.9457 16.5339 50.338 16.1987 50.4763 15.7343C50.6371 15.1932 50.4116 14.6221 50.1892 14.1036C49.8961 13.4167 49.591 12.7148 49.074 12.1752C48.5569 11.6372 47.7724 11.2885 47.054 11.4929C47.3921 11.3441 47.7528 11.1923 48.1196 11.2419C48.4863 11.2915 48.8395 11.6312 48.7613 11.9919C48.7132 12.2173 48.5179 12.3811 48.3255 12.5089C47.1111 13.3115 45.5179 13.4182 44.3681 14.311C43.1266 15.2774 42.6863 16.9187 42.0941 18.3766C41.8927 18.8726 41.6733 19.4677 41.9754 19.9096C42.2624 20.3289 42.8621 20.365 43.3671 20.3154C44.5921 20.1952 45.7899 19.8179 46.8631 19.2167C47.2989 18.9733 47.7213 18.6847 48.0204 18.2849C48.3195 17.8851 48.4773 17.356 48.339 16.8766" fill="#42403B"/>
</g>
<path id="Hair_17" d="M50.2282 24.8453C49.2122 25.9184 46.9532 29.0732 49.2032 30.0396C49.7458 30.2726 50.3169 30.2065 50.8925 30.1884C51.5914 30.1674 52.2031 30.3237 52.8524 30.5777C53.8759 30.9775 54.9641 31.478 56.0809 31.1278C58.2376 30.4545 57.7687 27.8002 56.5362 26.5196C55.8013 25.7561 54.8905 25.2196 53.8384 25.0678C53.0989 24.9611 52.5443 24.8002 51.8529 24.5372C51.4561 24.3869 51.1615 24.4515 50.7963 24.6514C50.371 24.8829 50.7512 25.5322 51.1751 25.3007C51.5388 25.1023 51.9611 25.454 52.3008 25.5652C52.6029 25.6644 52.9185 25.705 53.2327 25.7456C54.178 25.8658 54.9446 26.1033 55.675 26.7391C56.3138 27.2952 56.8804 28.0467 56.8654 28.9334C56.8489 29.9239 56.0929 30.5431 55.128 30.4875C54.3043 30.4409 53.5664 30.0366 52.8058 29.7571C52.0153 29.4655 51.3134 29.4309 50.4807 29.4595C50.0509 29.4745 49.4436 29.4911 49.14 29.1153C48.8364 28.7396 49.1235 28.0662 49.2753 27.6739C49.6105 26.8112 50.126 26.0462 50.7603 25.3759C51.0924 25.0242 50.5619 24.4921 50.2282 24.8438V24.8453Z" fill="#42403B"/>
<g id="Hair_18">
<path id="Vector_3" d="M37.9838 25.3518C38.6151 25.3443 38.0349 24.5973 38.6662 24.5898C39.1667 24.5838 39.7063 24.5898 40.1076 24.8889C40.548 25.2166 40.7193 25.8238 41.1747 26.1289C41.5715 26.3934 42.102 26.3739 42.5094 26.6234C43.1526 27.0187 43.2353 27.9926 42.8325 28.6314C42.4297 29.2701 41.6857 29.6128 40.9492 29.7767C40.2714 29.927 39.5364 29.9675 38.9743 30.3748C38.4828 30.731 38.2123 31.3052 37.8771 31.8087C37.1903 32.8413 36.1577 33.6393 34.9869 34.0466C34.8727 34.0857 34.7539 34.1233 34.6337 34.1218C34.4774 34.1203 34.3286 34.0557 34.1933 33.976C33.5651 33.6078 33.1803 32.9374 32.8662 32.2806C32.5956 31.717 32.3522 31.1248 32.3221 30.5011C32.286 29.721 32.5926 28.9545 33.051 28.3218C33.5094 27.689 34.1106 27.1765 34.7254 26.6955C35.5806 26.0267 36.4764 25.409 37.4052 24.8453C38.0695 24.441 37.826 24.435 38.5865 24.6003" fill="#42403B"/>
</g>
<path id="Hair_19" d="M59.0253 30.1614C59.0253 30.1614 53.8791 32.1799 48.7118 29.1424C48.7118 29.1424 50.7588 25.6524 52.2618 26.8548C53.7648 28.0572 59.0253 30.1614 59.0253 30.1614Z" fill="#42403B"/>
<path id="Hair_20" d="M63.3839 28.0574C63.3839 28.0574 65.0372 29.861 65.0372 30.9131C65.0372 31.9651 63.6845 34.9711 63.6845 34.9711L63.3839 28.0574Z" fill="#42403B"/>
<path id="Hair_21" d="M63.384 28.0574C63.384 28.0574 60.6786 30.4622 59.9271 32.416C59.1756 34.3699 62.6325 37.2256 62.6325 37.2256C62.6325 37.2256 65.2206 39.8288 65.5799 40.932C65.9391 42.0352 65.1876 35.8729 65.1876 35.8729L63.384 28.0574Z" fill="#42403B"/>
<path id="Hair_22" d="M31.8211 30.9131C31.8211 30.9131 30.769 31.364 29.9108 33.7117C29.9108 33.7117 28.979 32.5138 26.8492 33.7117C26.8492 33.7117 24.7195 33.8454 24.5857 35.1756C24.5857 35.1756 22.8558 34.3775 22.5883 35.9737C22.5883 35.9737 22.9881 38.1034 24.0522 38.5032C24.0522 38.5032 25.2501 39.3013 26.3157 38.2372C26.3157 38.2372 26.3157 39.9671 27.6473 39.9671C27.6473 39.9671 28.5792 40.1009 29.3773 39.169C29.3773 39.169 30.4429 39.0353 30.3091 39.5688C30.3091 39.5688 30.1754 42.4981 31.507 43.0302L32.5726 35.3093L31.8196 30.9131H31.8211Z" fill="#42403B"/>
<path id="Hair_23" d="M42.9432 27.6064L40.0875 24.901L36.9192 24.2006L36.5194 22.7367C36.5194 22.7367 35.9873 21.6711 35.4538 21.6711C35.4538 21.6711 35.054 19.5413 32.2584 20.4732C32.2584 20.4732 29.1968 20.3394 28.9308 24.2006C28.9308 24.2006 28.9308 27.2622 29.3306 27.662C29.3306 27.662 30.9283 29.6595 31.5941 29.6595L32.3922 31.923L34.5249 33.7701C34.5249 33.7701 38.9151 29.5257 41.4432 29.6595C41.4432 29.6595 42.4081 27.4756 42.9417 27.6079L42.9432 27.6064Z" fill="#42403B"/>
<path id="Hair_24" d="M55.4181 21.8951C55.4181 21.8951 51.297 22.5849 49.2995 25.2482C49.2995 25.2482 47.9678 28.0438 47.1698 28.3098C47.1698 28.3098 45.04 28.8419 42.9103 26.1801C42.9103 26.1801 41.2089 23.5829 37.0817 23.8489C37.0817 23.8489 39.3151 21.3871 41.0466 20.855C41.0466 20.855 41.3126 19.9231 41.9784 19.9231C41.9784 19.9231 40.9128 18.0594 41.7124 16.8615C41.7124 16.8615 40.7805 15.2639 42.2445 14.5981C42.2445 14.5981 41.9784 11.1367 44.774 11.4027C44.774 11.4027 47.9693 10.6046 49.5655 12.0685C49.5655 12.0685 50.6311 12.4683 50.6311 14.5981C50.6311 14.5981 50.4974 15.6637 50.7649 15.9297C50.7649 15.9297 51.8305 16.8616 51.1647 18.0594C51.1647 18.0594 50.6326 18.7253 50.8986 18.9913C50.8986 18.9913 52.7624 19.3911 52.8961 19.7894C52.8961 19.7894 55.6226 19.7428 56.0223 20.5424L55.4212 21.8951H55.4181Z" fill="#42403B"/>
<path id="Hair_25" d="M58.3523 30.8558C58.3523 30.8558 51.5633 30.456 48.3679 28.9921C48.3679 28.9921 48.3679 24.4666 54.3588 22.869L55.5687 22.0453C55.5687 22.0453 54.5166 21.1435 56.0888 20.3394C56.0888 20.3394 57.1544 19.9396 57.1544 19.4076C57.1544 19.4076 57.4204 17.1441 59.95 17.4101C59.95 17.4101 60.748 15.8124 61.9474 16.4782C61.9474 16.4782 64.0772 16.0784 64.3432 17.0103C64.3432 17.0103 65.9409 18.3419 65.9409 19.14C65.9409 19.14 67.0065 21.4035 65.6748 22.6014C65.6748 22.6014 64.6092 24.1991 64.3432 24.0653C64.3432 24.0653 62.7455 31.6524 58.3523 30.8543V30.8558Z" fill="#42403B"/>
<path id="Hair_26" d="M63.0833 28.5083L65.0252 30.9371C65.0252 30.9371 66.223 30.4051 66.7551 30.9371C66.7551 30.9371 69.6844 28.8074 71.1484 31.3369C71.1484 31.3369 73.2781 31.0709 73.2781 32.6686C73.2781 32.6686 73.4119 34.1325 73.5441 34.2663C73.5441 34.2663 74.6097 36.662 71.9464 36.9281C71.9464 36.9281 70.7485 37.0618 70.2165 36.396C70.2165 36.396 68.5542 38.8278 66.6905 38.428L65.6384 40.5322C65.6384 40.5322 60.2321 33.8665 60.4982 32.4026C60.4982 32.4026 61.3518 29.4402 63.0833 28.5083Z" fill="#42403B"/>
</g>
<g id="Eyes">
<path id="Right Eye" d="M56.6625 46.0782C57.3191 46.0782 57.8513 45.5459 57.8513 44.8893C57.8513 44.2327 57.3191 43.7004 56.6625 43.7004C56.0059 43.7004 55.4736 44.2327 55.4736 44.8893C55.4736 45.5459 56.0059 46.0782 56.6625 46.0782Z" fill="#414140"/>
<path id="Left Eye" d="M39.5964 46.0782C40.253 46.0782 40.7853 45.5459 40.7853 44.8893C40.7853 44.2327 40.253 43.7004 39.5964 43.7004C38.9399 43.7004 38.4076 44.2327 38.4076 44.8893C38.4076 45.5459 38.9399 46.0782 39.5964 46.0782Z" fill="#414140"/>
</g>
<g id="Cheeks">
<path id="Right Cheek" d="M56.8946 53.324C58.9341 53.324 60.5875 52.1094 60.5875 50.6111C60.5875 49.1128 58.9341 47.8982 56.8946 47.8982C54.8551 47.8982 53.2018 49.1128 53.2018 50.6111C53.2018 52.1094 54.8551 53.324 56.8946 53.324Z" fill="#B7724B"/>
<path id="Left Cheek" d="M39.4599 53.324C41.4994 53.324 43.1528 52.1094 43.1528 50.6111C43.1528 49.1128 41.4994 47.8982 39.4599 47.8982C37.4204 47.8982 35.7671 49.1128 35.7671 50.6111C35.7671 52.1094 37.4204 53.324 39.4599 53.324Z" fill="#B7724B"/>
</g>
<g id="Eyelids &#38;amp; Eyelashes">
<g id="Eyelashes">
<path id="Right Eyelash" d="M59.7665 44.9645C59.6253 44.9645 59.475 44.939 59.3172 44.8759C59.2014 44.8293 59.1458 44.6985 59.1909 44.5828C59.2375 44.467 59.3683 44.4099 59.484 44.4565C60.0732 44.6925 60.5722 44.0808 60.5767 44.0748C60.6548 43.9771 60.7961 43.962 60.8938 44.0402C60.9915 44.1184 61.0065 44.2596 60.9284 44.3573C60.9043 44.3874 60.4324 44.966 59.7651 44.966L59.7665 44.9645Z" fill="#6B4D38"/>
<path id="Left Eyelash" d="M36.4792 44.9646C35.8118 44.9646 35.3399 44.3859 35.3159 44.3559C35.2377 44.2582 35.2542 44.1169 35.3504 44.0388C35.4481 43.9606 35.5894 43.9771 35.6676 44.0733C35.6886 44.0989 36.1771 44.6896 36.7602 44.4566C36.876 44.41 37.0067 44.4671 37.0533 44.5828C37.0999 44.6986 37.0428 44.8293 36.9271 44.8759C36.7707 44.939 36.6204 44.9646 36.4777 44.9646H36.4792Z" fill="#6B4D38"/>
</g>
<g id="Eyelids">
<path id="Right Eyelid" d="M60.4473 45.6152C60.2054 45.6152 60.0325 45.5296 60.019 45.5235L59.9709 45.4905C58.6558 44.3136 57.3843 43.7921 56.1909 43.9394C54.6218 44.1333 53.7245 45.4364 53.7155 45.4499C53.6463 45.5521 53.505 45.5806 53.4028 45.51C53.2991 45.4409 53.2721 45.2996 53.3427 45.1974C53.3833 45.1373 54.3663 43.7124 56.1368 43.493C57.4549 43.3292 58.8377 43.8808 60.246 45.1328C60.3286 45.1643 60.6142 45.244 60.8967 44.9599C60.9854 44.8712 61.1282 44.8712 61.2154 44.9599C61.3026 45.0486 61.3041 45.1914 61.2154 45.2786C60.9479 45.5461 60.6683 45.6167 60.4473 45.6167V45.6152Z" fill="#6B4D38"/>
<path id="Left &#10;Eyelid" d="M35.7998 45.6153C35.5789 45.6153 35.2994 45.5447 35.0318 45.2771C34.9432 45.1884 34.9432 45.0457 35.0318 44.9585C35.1205 44.8713 35.2633 44.8698 35.3505 44.9585C35.6345 45.2426 35.9231 45.1614 36.0013 45.1313C37.4081 43.8808 38.7908 43.3292 40.1104 43.4916C41.881 43.711 42.8639 45.1358 42.9045 45.196C42.9736 45.2997 42.9466 45.4395 42.8444 45.5086C42.7407 45.5777 42.6009 45.5507 42.5317 45.4485C42.5212 45.4334 41.6149 44.1288 40.0503 43.938C38.8584 43.7922 37.5884 44.3152 36.2748 45.4906L36.2267 45.5236C36.2132 45.5311 36.0403 45.6153 35.7983 45.6153H35.7998Z" fill="#6B4D38"/>
</g>
</g>
<path id="Nose" d="M47.9064 55.6085C47.9064 55.6085 47.8929 55.6085 47.8869 55.6085L47.6915 55.601V55.5709C47.4029 55.4973 47.2391 55.3425 47.2195 55.3214C46.7912 54.8931 46.2216 55.0239 46.1975 55.0299L46.1825 55.0329C45.3258 55.1772 44.7396 55.0329 44.439 54.6015C43.7897 53.6712 44.8102 51.8225 44.929 51.6136C44.9846 51.5159 45.1078 51.4813 45.2055 51.5384C45.3032 51.594 45.3378 51.7188 45.2822 51.815C44.9951 52.3185 44.3458 53.7583 44.7727 54.3685C44.9741 54.6571 45.4235 54.7458 46.1088 54.6316C46.205 54.609 46.9385 54.4677 47.5051 55.0314C47.5096 55.0359 47.6554 55.1711 47.9154 55.1967L47.9395 55.1997H47.9635H48.0041L48.0251 55.1967C48.2852 55.1696 48.4309 55.0344 48.437 55.0284C49.0021 54.4647 49.7355 54.609 49.8317 54.6301C50.5171 54.7443 50.9665 54.6556 51.1679 54.3655C51.5947 53.7538 50.944 52.3155 50.6584 51.812C50.6028 51.7143 50.6373 51.591 50.7335 51.5354C50.8312 51.4798 50.9545 51.5144 51.0101 51.6106C51.1288 51.818 52.1493 53.6682 51.5 54.5985C51.1994 55.0284 50.6133 55.1726 49.7566 55.0299L49.7415 55.0269C49.719 55.0208 49.1494 54.8916 48.721 55.3184C48.7 55.3395 48.5362 55.4943 48.2476 55.5679V55.5935L48.0522 55.6055C48.0281 55.6055 48.0056 55.6055 47.9831 55.6055H47.9635H47.9545C47.938 55.6055 47.9214 55.607 47.9049 55.607L47.9064 55.6085Z" fill="#6B4D38"/>
<path id="Mouth" d="M51.8894 60.9594C51.5557 60.5716 50.6208 59.4849 50.5743 59.4158C50.5352 59.3587 49.4846 58.2615 48.0537 58.2735C46.6244 58.2615 45.5723 59.3587 45.5332 59.4158C45.4866 59.4849 44.5518 60.5716 44.2181 60.9594C44.1339 61.0571 44.1204 61.1999 44.1896 61.3081C44.5187 61.8206 45.6459 62.6968 45.6459 62.6968C46.1765 63.1132 47.0663 63.2033 47.8884 63.1748C47.9982 63.1703 48.1064 63.1703 48.2161 63.1748C49.0397 63.2033 49.9295 63.1132 50.4585 62.6968C50.4585 62.6968 51.5873 61.8206 51.9149 61.3081C51.984 61.1999 51.9705 61.0571 51.8864 60.9594H51.8894Z" fill="#6B4D38"/>
</g>
</g>
</g>
<rect x="3.10693" y="2.25" width="91.5" height="91.5" rx="45.75" stroke="white" stroke-width="4.5"/>
</g>
<defs>
<clipPath id="clip0_1_4826">
<rect x="0.856934" width="96" height="96" rx="48" fill="white"/>
</clipPath>
</defs>
</svg>
