<svg width="97" height="96" viewBox="0 0 97 96" fill="none" xmlns="http://www.w3.org/2000/svg">
<g id="Character">
<g clip-path="url(#clip0_1_4718)">
<circle id="Ellipse 38" cx="48.1431" cy="48" r="48" fill="#EEF0FF"/>
<mask id="mask0_1_4718" style="mask-type:alpha" maskUnits="userSpaceOnUse" x="0" y="0" width="97" height="96">
<circle id="Ellipse 39" cx="48.1431" cy="48" r="48" fill="#D9D9D9"/>
</mask>
<g mask="url(#mask0_1_4718)">
<g id="Girl 25">
<g id="Hair">
<path id="Hair_2" d="M73.1072 69.1677C73.1072 69.1677 88.9582 74.3886 80.8593 89.5161C80.8593 89.5161 96.5549 75.4995 73.1072 69.1677Z" fill="#45413D"/>
<path id="Hair_3" d="M15.7469 83.4266C15.726 83.4266 15.7036 83.4236 15.6811 83.4176C15.563 83.3817 15.4957 83.2561 15.5316 83.138C17.5126 76.6119 20.6808 74.3857 20.8153 74.293C20.9185 74.2242 21.0575 74.2496 21.1263 74.3513C21.1966 74.453 21.1697 74.5935 21.068 74.6623C21.0261 74.6907 17.8879 76.9184 15.9607 83.2666C15.9308 83.3638 15.8426 83.4251 15.7469 83.4251V83.4266Z" fill="#42403B"/>
<path id="Hair_4" d="M91.1799 106.963C91.1261 106.963 91.0722 106.943 91.0304 106.906C90.9377 106.824 90.9302 106.682 91.0139 106.589C93.9593 103.307 95.1509 100.191 94.5558 97.3252C93.6184 92.8174 88.5081 90.4313 88.4573 90.4073C88.3452 90.3565 88.2958 90.2234 88.3467 90.1098C88.3975 89.9976 88.5306 89.9468 88.6442 89.9992C88.8625 90.0993 94.0101 92.5004 94.9954 97.2309C95.6233 100.245 94.3958 103.494 91.3488 106.889C91.304 106.939 91.2427 106.964 91.1814 106.964L91.1799 106.963Z" fill="#42403B"/>
<path id="Hair_5" d="M92.177 91.0457C92.177 91.0457 88.6217 83.6748 80.4958 83.1994C80.4958 83.1994 77.7029 81.773 80.7499 77.9695C80.7499 77.9695 84.0511 71.3118 72.3699 65.8442C72.3699 65.8442 69.3229 64.8933 69.3229 58.2356C69.3229 58.2356 66.0217 33.985 57.3874 31.3701C57.3874 31.3701 38.3413 23.7615 30.7223 38.0278C30.7223 38.0278 25.5373 50.7481 24.7538 54.0329C24.7538 54.0329 23.6116 65.1325 21.3271 68.6983C21.3271 68.6983 15.4857 74.1659 17.5175 84.8648C17.5175 84.8648 18.2561 88.2303 20.2296 91.0097C17.4682 93.5484 15.7832 96.9303 15.7832 100.644C15.7832 108.529 23.3813 114.921 32.7526 114.921C38.1739 114.921 43.0016 112.781 46.1084 109.452C50.5234 112.621 57.2006 114.641 64.6731 114.641C76.2526 114.641 85.92 109.791 88.2224 103.329C90.5129 101.788 94.626 97.9201 92.1785 91.0457H92.177Z" fill="#45413D"/>
</g>
<path id="Body" d="M89.8957 98.4447C87.949 82.4636 70.4339 77.6224 58.5837 76.1826C54.1268 74.0417 56.3321 63.7733 56.4053 63.4429C56.2349 63.5804 48.112 63.5849 47.7502 63.5849C47.3869 63.5849 39.264 63.5819 39.0951 63.4429C39.1668 63.7733 41.3721 74.0417 36.9167 76.1826C25.065 77.6209 7.5499 82.4621 5.60477 98.4447L3.57141 115.804L47.674 115.492H47.831L91.9335 115.804L89.9001 98.4447H89.8957Z" fill="#E6B28E"/>
<g id="Outfit">
<path id="Outfit_2" d="M79.1199 104.391C79.1648 104.445 79.2096 104.499 79.2575 104.552L76.5229 115.827L72.7926 115.784L47.8274 115.606H47.6689L22.8128 115.784L18.4486 115.828L15.7141 104.552C15.7604 104.5 15.8038 104.446 15.8516 104.391H4.6593L5.35451 98.4598C6.6089 88.1495 14.3087 82.4487 22.8143 79.3045C23.1627 79.1729 23.5155 79.0489 23.8669 78.9293C27.2757 77.7586 30.7757 76.9811 34.0126 76.4653C37.1254 78.1428 42.1385 79.2283 47.7915 79.2283C53.4445 79.2283 58.4382 78.1458 61.5525 76.4758C64.456 76.9422 67.5703 77.618 70.6382 78.6003C70.9896 78.7109 71.3409 78.8291 71.6907 78.9502C80.5821 82.0122 88.8381 87.7474 90.1433 98.4583L90.8385 104.389H79.1199V104.391Z" fill="white"/>
<path id="Outfit_3" d="M79.39 106.654L76.932 115.816H18.025L15.7061 106.626C15.2815 104.968 15.6283 103.207 16.648 101.834L22.9588 93.3435V79.2522C23.3057 79.1221 23.6555 78.998 24.0054 78.8784V93.2284C52.8504 104.159 67.477 95.5608 70.5031 93.4004V78.5525C70.8529 78.6631 71.2013 78.7798 71.5497 78.9009V93.502L78.4526 102.132C79.4707 103.403 79.8191 105.083 79.39 106.654Z" fill="#9C99EE"/>
</g>
<path id="Head Shadow" d="M56.0975 64.8185C56.0152 65.4464 55.933 66.179 55.8851 66.9639C54.2599 68.474 52.3597 69.7374 50.1454 70.5941C49.4682 70.8572 47.0909 71.1128 45.6467 70.4924C44.0499 69.8046 41.8222 68.5368 39.5332 66.2523C39.4584 65.3941 39.3523 64.6256 39.2566 64.0276C41.6413 66.49 43.9856 67.8326 45.6467 68.5487C47.0909 69.1692 49.4667 68.9136 50.1454 68.6504C52.4584 67.7564 54.4259 66.4183 56.0975 64.8185Z" fill="#D19F70"/>
<path id="Head" d="M68.9734 40.1792C68.7267 39.5737 68.2408 39.0833 67.6203 38.8755C66.6874 38.5615 66.0445 39.031 65.6423 39.5483C66.1805 19.3061 47.9268 19.8309 47.9268 19.8309C47.9268 19.8309 29.4384 19.6993 30.1934 39.792C29.8167 39.1969 29.1244 38.5122 28.045 38.8755C27.4245 39.0833 26.9386 39.5737 26.6919 40.1792C25.9996 41.8731 25.0114 46.0894 31.24 47.9044C31.2774 47.9149 31.3132 47.8999 31.3357 47.8745C34.5681 62.1064 41.924 67.0552 45.7171 68.6998C47.1509 69.3218 49.5117 69.0646 50.1845 68.803C59.6529 65.1146 63.301 53.8908 64.6062 47.8506C70.633 46.0071 69.6567 41.8567 68.9719 40.1807L68.9734 40.1792Z" fill="#E6B28E"/>
<g id="Hair_6">
<path id="Hair_7" d="M53.8047 21.0135C53.8047 21.0135 54.5508 20.3198 54.8259 18.9219C54.8259 18.9219 56.1655 20.568 53.8047 21.0135Z" fill="#45413D"/>
<path id="Hair_8" d="M53.8036 20.9867C53.8036 20.9867 53.7767 20.6219 53.4583 19.2329C53.4583 19.2329 54.9534 19.8309 53.8036 20.9867Z" fill="#45413D"/>
<path id="Hair_9" d="M67.4382 39.1566C67.4382 39.1566 64.9713 19.8115 48.271 19.5648C48.271 19.5648 32.1538 17.8992 28.416 38.3911C28.416 38.3911 32.1538 45.8846 51.5154 28.0689C51.5154 28.0689 58.6919 46.2673 67.4382 39.1566Z" fill="#45413D"/>
<path id="Hair_10" d="M53.8052 21.1632C53.7424 21.1632 53.6841 21.1243 53.6632 21.0616C53.6542 21.0346 52.657 18.3853 46.4299 19.9372C46.3491 19.9552 46.2684 19.9088 46.249 19.8281C46.2295 19.7474 46.2774 19.6666 46.3581 19.6472C52.8827 18.0235 53.9069 20.8462 53.9472 20.9673C53.9741 21.0451 53.9308 21.1303 53.8531 21.1572C53.8366 21.1632 53.8217 21.1647 53.8052 21.1647V21.1632Z" fill="#42403B"/>
<path id="Hair_11" d="M51.3223 28.1616C49.739 31.85 46.4513 34.465 43.0081 36.3473C39.1597 38.4509 34.5951 39.5094 30.3715 37.8977C30.0336 37.7691 29.8885 38.3104 30.2219 38.439C34.492 40.0686 39.1432 39.046 43.0589 36.9573C46.6651 35.0346 50.1561 32.2911 51.8052 28.4457C51.9458 28.1183 51.4629 27.8312 51.3208 28.1631L51.3223 28.1616Z" fill="#42403B"/>
</g>
<g id="Ear Details">
<path id="Ear Detail" d="M29.2378 44.799C29.2288 44.799 29.2199 44.799 29.2109 44.796C29.1302 44.781 29.0763 44.7033 29.0898 44.6225C29.3754 43.0527 28.0746 40.8609 28.0627 40.8384C28.0208 40.7682 28.0432 40.6755 28.1135 40.6336C28.1838 40.5917 28.2765 40.6142 28.3183 40.6844C28.3752 40.7786 29.6893 42.9944 29.3843 44.6749C29.3709 44.7466 29.3081 44.7975 29.2378 44.7975V44.799Z" fill="#DD958C"/>
<path id="Ear Detail_2" d="M27.9673 44.7242C27.8955 44.7242 27.8327 44.6718 27.8193 44.5986C27.8058 44.5178 27.8612 44.4401 27.9419 44.4266C28.7253 44.2966 28.9331 43.1588 28.9346 43.1483C28.9481 43.0676 29.0258 43.0138 29.1081 43.0272C29.1888 43.0422 29.2441 43.1184 29.2291 43.2006C29.2202 43.2559 28.981 44.5582 27.9912 44.7227C27.9823 44.7227 27.9748 44.7242 27.9658 44.7242H27.9673Z" fill="#DD958C"/>
<path id="Ear Detail_3" d="M66.5859 44.7991C66.5157 44.7991 66.4514 44.7483 66.4394 44.6765C66.1344 42.996 67.4486 40.7788 67.5054 40.6861C67.5473 40.6158 67.64 40.5919 67.7102 40.6352C67.7805 40.6771 67.8045 40.7698 67.7611 40.8401C67.7476 40.8625 66.4484 43.0543 66.7339 44.6242C66.7489 44.7049 66.6951 44.7827 66.6128 44.7976C66.6039 44.7991 66.5949 44.8006 66.5859 44.8006V44.7991Z" fill="#DD958C"/>
<path id="Ear Detail_4" d="M67.8564 44.7242C67.8489 44.7242 67.8399 44.7242 67.831 44.7227C66.8412 44.5582 66.602 43.2559 66.593 43.2006C66.5781 43.1199 66.6334 43.0422 66.7141 43.0272C66.7964 43.0138 66.8726 43.0676 66.8875 43.1483C66.889 43.1603 67.0998 44.2966 67.8803 44.4266C67.961 44.4401 68.0163 44.5178 68.0029 44.5986C67.9909 44.6718 67.9266 44.7242 67.8549 44.7242H67.8564Z" fill="#DD958C"/>
</g>
<g id="Cheeks">
<path id="Right Cheek" d="M56.897 53.1716C58.7962 53.1716 60.3357 52.1341 60.3357 50.8542C60.3357 49.5744 58.7962 48.5369 56.897 48.5369C54.9978 48.5369 53.4583 49.5744 53.4583 50.8542C53.4583 52.1341 54.9978 53.1716 56.897 53.1716Z" fill="#DBA886"/>
<path id="Left Cheek" d="M40.4507 53.3211C42.3499 53.3211 43.8894 52.2835 43.8894 51.0037C43.8894 49.7238 42.3499 48.6863 40.4507 48.6863C38.5515 48.6863 37.012 49.7238 37.012 51.0037C37.012 52.2835 38.5515 53.3211 40.4507 53.3211Z" fill="#DBA886"/>
</g>
<g id="Eyes">
<path id="Right Eye" d="M56.4691 46.6964C57.2378 46.6964 57.861 46.1227 57.861 45.4151C57.861 44.7074 57.2378 44.1338 56.4691 44.1338C55.7004 44.1338 55.0771 44.7074 55.0771 45.4151C55.0771 46.1227 55.7004 46.6964 56.4691 46.6964Z" fill="#414140"/>
<path id="Left Eye" d="M40.4217 46.6964C41.1905 46.6964 41.8137 46.1227 41.8137 45.4151C41.8137 44.7074 41.1905 44.1338 40.4217 44.1338C39.653 44.1338 39.0298 44.7074 39.0298 45.4151C39.0298 46.1227 39.653 46.6964 40.4217 46.6964Z" fill="#414140"/>
</g>
<g id="Eyelids">
<path id="Right Eyelid" d="M60.1044 46.0952C59.8697 46.0952 59.7023 46.0129 59.6888 46.0055L59.6455 45.9756C58.3313 44.8004 57.0604 44.2801 55.8674 44.4266C54.296 44.621 53.3974 45.9247 53.3885 45.9382C53.3257 46.0309 53.2001 46.0548 53.1074 45.992C53.0147 45.9292 52.9908 45.8036 53.0536 45.7109C53.0939 45.6511 54.0657 44.2412 55.8165 44.0244C57.1232 43.863 58.4927 44.4102 59.8892 45.6526C59.9714 45.6855 60.2689 45.7722 60.565 45.4777C60.6442 45.3985 60.7713 45.3985 60.8505 45.4777C60.9297 45.557 60.9297 45.684 60.8505 45.7633C60.5889 46.0249 60.3168 46.0937 60.1015 46.0937L60.1044 46.0952Z" fill="#414140"/>
<path id="Left Eyelid" d="M36.6342 46.0948C36.4189 46.0948 36.1468 46.0261 35.8851 45.7644C35.8059 45.6852 35.8059 45.5581 35.8851 45.4789C35.9644 45.3996 36.0915 45.3996 36.1707 45.4789C36.4652 45.7734 36.7673 45.6852 36.8465 45.6538C38.2429 44.4129 39.6124 43.8641 40.9192 44.0256C42.6699 44.2424 43.6417 45.6523 43.6821 45.7121C43.7449 45.8048 43.721 45.9304 43.6283 45.9932C43.5356 46.056 43.41 46.032 43.3472 45.9393C43.3382 45.9259 42.4322 44.6192 40.8638 44.4263C39.6722 44.2813 38.4029 44.8016 37.0917 45.9752L37.0483 46.0051C37.0349 46.0111 36.8674 46.0948 36.6327 46.0948H36.6342Z" fill="#414140"/>
</g>
<path id="Nose" d="M47.9272 55.5577C47.7493 55.5577 47.5609 55.5443 47.368 55.5144C46.7221 55.4187 46.1032 55.1779 45.7129 54.8685C45.2121 54.4723 45.254 54.1015 45.3242 53.9161C45.3676 53.7994 45.4977 53.7412 45.6128 53.7845C45.7294 53.8279 45.7877 53.958 45.7444 54.0731C45.6816 54.2391 45.8729 54.4229 45.991 54.5171C46.613 55.0105 48.1664 55.3633 48.9065 54.8685C49.2967 54.6068 49.3984 54.1329 49.2055 53.4571C48.0737 49.4966 48.893 45.1727 48.902 45.1294C48.9259 45.0083 49.0425 44.9275 49.1651 44.9515C49.2862 44.9754 49.3655 45.0935 49.3431 45.2146C49.3356 45.2565 48.5357 49.4771 49.6376 53.333C49.9516 54.4334 49.5494 54.9776 49.1577 55.2392C48.8467 55.4471 48.4206 55.5562 47.9287 55.5562L47.9272 55.5577Z" fill="#A07857"/>
<path id="Mouth" d="M48.1918 61.0883C47.3575 61.0883 46.5113 60.6413 45.6726 59.7562C45.5873 59.6665 45.5918 59.5245 45.6815 59.4393C45.7712 59.354 45.9133 59.3585 45.9985 59.4482C46.8133 60.3079 47.6132 60.7056 48.3757 60.6324C49.4611 60.5262 50.1249 59.493 50.1309 59.4826C50.1967 59.3779 50.3358 59.3465 50.4404 59.4123C50.5451 59.4781 50.5765 59.6171 50.5107 59.7218C50.4793 59.7711 49.7213 60.9508 48.419 61.0779C48.3428 61.0854 48.268 61.0883 48.1918 61.0883Z" fill="#A07857"/>
<g id="Haedband">
<path id="Haedband_2" d="M54.9018 21.6698C57.1713 22.8106 67.1332 28.471 66.6383 39.6678C66.6308 39.8353 66.7205 40.0012 66.882 40.073C67.0166 40.1328 67.1646 40.1014 67.2214 39.7396L67.5114 33.7906C67.5114 33.7906 67.5264 33.212 67.477 32.4001C67.3709 30.6643 66.8506 28.9719 65.97 27.4409L65.7368 27.0342C65.3854 26.4227 64.9892 25.8366 64.5496 25.2775C63.9591 24.5269 63.1652 23.5521 62.8781 23.3697C62.8422 23.3473 62.8108 23.3189 62.7839 23.286L60.9973 21.1973C60.918 21.1046 60.8029 21.0463 60.6773 21.0344L55.4026 20.52C55.2262 20.5036 55.0557 20.5798 54.9585 20.7174L54.7328 21.0418C54.5833 21.2571 54.661 21.5472 54.9032 21.6698H54.9018Z" fill="#D8D6FF"/>
<path id="Haedband_3" d="M46.7843 20.1299C46.7843 20.1299 58.7272 22.4473 61.0386 21.7386L63.359 19.8951C63.359 19.8951 64.7091 18.8621 62.9733 17.5957L58.2638 14.8013C58.2638 14.8013 53.608 12.4316 48.414 15.2349L46.7649 15.5728L46.7843 20.1299Z" fill="#9C99EE"/>
<path id="Haedband_4" d="M47.4859 15.5443L47.0344 19.7157C47.0344 19.7157 46.8236 20.5828 45.6096 20.5754L42.2935 20.4094C42.2935 20.4094 41.5369 20.3107 41.661 19.3942L41.6431 18.0471C41.6431 18.0471 41.8808 13.7338 43.8633 13.7158L47.4859 15.5458V15.5443Z" fill="#D8D6FF"/>
<path id="Haedband_5" d="M39.3922 17.035C39.3922 17.035 40.663 18.4763 41.6453 18.0457L43.8655 13.7144C43.8655 13.7144 40.5434 14.136 39.3922 17.035Z" fill="#9C99EE"/>
<path id="Haedband_6" d="M41.6687 19.1043L33.033 25.2103C33.033 25.2103 28.8856 27.6458 27.2814 26.505C27.2814 26.505 26.0404 25.8143 27.7538 24.3566C27.7538 24.3566 33.8523 16.9902 39.4171 17.195C39.4171 17.195 42.0918 16.5312 41.6687 19.1058V19.1043Z" fill="#D8D6FF"/>
<path id="Haedband_7" d="M41.5026 18.7842L30.8051 26.2672C30.8051 26.2672 25.4975 35.8284 29.8199 40.9117C29.8199 40.9117 28.1648 27.5634 42.1425 20.4288C42.1425 20.4288 42.5611 19.0324 41.5026 18.7842Z" fill="#D8D6FF"/>
</g>
</g>
</g>
</g>
<rect x="2.39307" y="2.25" width="91.5" height="91.5" rx="45.75" stroke="white" stroke-width="4.5"/>
</g>
<defs>
<clipPath id="clip0_1_4718">
<rect x="0.143066" width="96" height="96" rx="48" fill="white"/>
</clipPath>
</defs>
</svg>
