<svg width="31" height="31" viewBox="0 0 31 31" fill="none" xmlns="http://www.w3.org/2000/svg">
<g id="Super Like">
<path id="vector" d="M8.59874 10.8317C8.13811 10.7914 7.64041 10.8425 7.10975 11.0133C4.79117 11.7591 4.01752 14.0795 4.27985 15.92C4.92297 20.4357 10.3279 23.4551 11.01 23.8191C11.745 23.5787 17.5925 21.5409 19.0093 17.2087C19.5873 15.4416 19.2283 13.022 17.0743 11.8849C14.975 10.7765 13.0861 11.9051 12.1067 13.2081C12.0247 13.3179 11.8346 13.3012 11.7723 13.1788C11.2072 12.0668 10.1 10.963 8.59874 10.8317Z" fill="white"/>
<path id="vector subtle" fill-rule="evenodd" clip-rule="evenodd" d="M14.6051 6.83899C15.1358 6.66818 15.6335 6.61704 16.0941 6.65734C17.5953 6.78868 18.7025 7.89253 19.2677 9.00452C19.33 9.12692 19.52 9.14354 19.6021 9.03378C20.5815 7.73075 22.4704 6.60218 24.5696 7.71058C26.7237 8.84764 27.0826 11.2673 26.5047 13.0343C25.493 16.1277 22.2225 18.0512 20.167 18.9859C20.3764 18.6028 20.555 18.2045 20.696 17.7911C21.3899 15.7577 20.8957 12.1489 18.2651 10.8258C15.7885 9.57988 12.9993 10.0831 11.7438 11.4675C11.5937 9.67806 12.4019 7.54763 14.6051 6.83899Z" fill="#9C99EE"/>
</g>
</svg>
