<svg width="22" height="22" viewBox="0 0 22 22" fill="none" xmlns="http://www.w3.org/2000/svg">
<g id="user-circle">
<path id="vector" d="M20.675 11.0002C20.675 5.665 16.3352 1.3252 11 1.3252C5.66475 1.3252 1.32495 5.665 1.32495 11.0002C1.32495 14.1232 2.81805 16.897 5.12205 18.6673C5.12565 18.6709 5.13108 18.6727 5.13468 18.6763C6.76458 19.9246 8.79403 20.6752 11.0008 20.6752C13.2076 20.6752 15.2372 19.9246 16.8671 18.6763C16.8707 18.6727 16.876 18.6709 16.8796 18.6673C19.1818 16.897 20.675 14.1232 20.675 11.0002ZM2.67495 11.0002C2.67495 6.4093 6.40905 2.6752 11 2.6752C15.5909 2.6752 19.325 6.4093 19.325 11.0002C19.325 13.2709 18.4088 15.331 16.9292 16.834C16.5251 15.1231 15.2317 13.5381 12.5389 13.5381H9.46099C6.76819 13.5381 5.47394 15.1231 5.07074 16.834C3.59114 15.331 2.67495 13.2709 2.67495 11.0002ZM6.28308 17.8528C6.33528 16.9294 6.75739 14.8881 9.46099 14.8881H12.5389C15.2425 14.8881 15.6646 16.9294 15.7168 17.8528C14.3749 18.7798 12.7505 19.3252 11 19.3252C9.24945 19.3252 7.62498 18.7789 6.28308 17.8528ZM11.0072 12.5752C12.8675 12.5752 14.3822 11.0614 14.3822 9.2002C14.3822 7.339 12.8675 5.8252 11.0072 5.8252C9.1469 5.8252 7.6322 7.339 7.6322 9.2002C7.6322 11.0614 9.146 12.5752 11.0072 12.5752ZM11.0072 7.1752C12.1232 7.1752 13.0322 8.0833 13.0322 9.2002C13.0322 10.3171 12.1232 11.2252 11.0072 11.2252C9.8912 11.2252 8.9822 10.3171 8.9822 9.2002C8.9822 8.0833 9.8912 7.1752 11.0072 7.1752Z" fill="#191531"/>
</g>
</svg>
